<svg xmlns="http://www.w3.org/2000/svg" viewBox="0 0 755.74 688.34"><g id="Layer_2" data-name="Layer 2"><g id="Layer_2-2" data-name="Layer 2"><path d="M332.57,688.34a65,65,0,0,1-55.65-31.84,64,64,0,0,1-1-64L361.36,437l-218.68,78.4a64.65,64.65,0,0,1-77.22-94.17L130.8,312.53,75.61,322a66.68,66.68,0,0,1-11.09.94A64.62,64.62,0,0,1,31.88,202.56L360.44,9a64.64,64.64,0,0,1,92.45,80.66l-49.79,119L668.13,108a64.64,64.64,0,0,1,77.23,95.54L615.06,405.08c1-.05,2.06-.07,3.08-.07a64.65,64.65,0,0,1,30.61,121.55l-285.44,154A64.89,64.89,0,0,1,332.57,688.34Zm61-278.86L289.09,599.75a49.15,49.15,0,0,0,.74,49.11,49.53,49.53,0,0,0,66.36,18.48l285.44-154A49.65,49.65,0,0,0,618.14,420c-1,0-2.1,0-3.13.09l-28.66,1.76L732.77,195.39A49.63,49.63,0,0,0,673.45,122L375.78,235,439.05,83.86a49.62,49.62,0,0,0-71-61.95L39.5,215.48a49.63,49.63,0,0,0,25,92.44,50.31,50.31,0,0,0,8.56-.73l87.44-15-82.2,136.7a49.62,49.62,0,0,0,59.3,72.32Zm-61,230.86a16.78,16.78,0,0,1-14.34-8.29,16.42,16.42,0,0,1-.21-16.41L464.39,349,126.48,470.18a16.55,16.55,0,0,1-20.14-7.52,16.42,16.42,0,0,1,.26-16.73L225.89,247.55,67.51,274.67a17.92,17.92,0,0,1-3,.25,16.66,16.66,0,0,1-8.27-31L384.8,50.35a16.54,16.54,0,0,1,22.37,5.18,16.33,16.33,0,0,1,1.44,15.59l-92.93,222L685.16,152.87a16.52,16.52,0,0,1,20.57,7.66,16.36,16.36,0,0,1-.68,16.94L523.18,458.79,617,453l1.1,0a16.65,16.65,0,0,1,7.82,31.3l-285.44,154A16.65,16.65,0,0,1,332.57,640.34Zm164-318.79L331.17,622.85a1.43,1.43,0,0,0,0,1.56,1.8,1.8,0,0,0,1.43.93,1.83,1.83,0,0,0,.83-.24l285.44-154a1.65,1.65,0,0,0-.7-3.1H618l-123.5,7.56,198-306.24a1.46,1.46,0,0,0,.1-1.63,1.74,1.74,0,0,0-1.4-.95,2,2,0,0,0-.67.14L288.36,319.54,394.77,65.33a1.41,1.41,0,0,0-.09-1.49,1.82,1.82,0,0,0-1.42-.84,1.68,1.68,0,0,0-.84.27L63.86,256.84a1.41,1.41,0,0,0-.77,1.8,1.56,1.56,0,0,0,1.43,1.28,2.6,2.6,0,0,0,.46,0L255.6,227.24,119.45,453.66a1.45,1.45,0,0,0,0,1.61,1.7,1.7,0,0,0,1.38.91,2.09,2.09,0,0,0,.65-.12Z"/></g><g id="Layer_3" data-name="Layer 3"><path d="M60.06,250.37,388.61,56.81a9.15,9.15,0,0,1,13.08,11.41L302,306.33,687.83,159.88a9.14,9.14,0,0,1,10.92,13.52L508.83,467.18l108.67-6.65c9.78-.6,13.53,12.53,4.9,17.18L337,631.7a9.15,9.15,0,0,1-12.36-12.46L480.49,335.29,124,463.12A9.15,9.15,0,0,1,113,449.79l127.71-212.4L66.24,267.27C56.23,269,51.3,255.53,60.06,250.37Z"/></g></g></svg>