<svg xmlns="http://www.w3.org/2000/svg" viewBox="0 0 71.31 51.6"><g id="Layer_2" data-name="Layer 2"><g id="Layer_3" data-name="Layer 3"><path d="M22.28,11.28c0,3.19,0,6.38,0,9.57,0,1-.3,1.44-1.4,1.43q-9.78-.06-19.56,0c-1,0-1.33-.38-1.32-1.36q0-9.78,0-19.56C0,.36.32,0,1.34,0Q11.2,0,21,0c1,0,1.26.37,1.25,1.29C22.26,4.62,22.28,8,22.28,11.28Zm-13,3.78h0c0,.91,0,1.82,0,2.73-.06,1.13.56,1.37,1.53,1.37s1.6-.17,1.57-1.33c-.05-1.64,0-3.28,0-4.92,0-1.08.12-1.85,1.48-1.94.33,0,.82-.77.86-1.22A1.42,1.42,0,0,0,14,8.59c-.77-.23-1.54-.3-1.54-1.36s.92-1,1.61-1.26a1.6,1.6,0,0,0,.72-1.22c0-.5-.18-1.32-.53-1.49A3.56,3.56,0,0,0,9.33,6.42c0,1-.11,1.75-1.21,2.18-.34.14-.55,1-.57,1.48a1.18,1.18,0,0,0,.69.93c1,.18,1.1.79,1.08,1.59S9.32,14.24,9.32,15.06Z"/><path d="M22.3,40.42c0,3.28,0,6.56,0,9.84,0,1-.35,1.33-1.35,1.32q-9.84,0-19.68,0C.37,51.58,0,51.32,0,50.34q0-9.9,0-19.82c0-1,.34-1.25,1.28-1.25,6.56,0,13.12,0,19.68,0,1.14,0,1.37.45,1.35,1.46C22.27,34,22.3,37.19,22.3,40.42Zm-8.61,4.36c2.65.12,4.3-3.61,4-5.73-.46-3.78-3.14-6.47-7.82-5.9C7,33.52,4.37,37,4.77,40.05c.38,2.89,2.15,5.15,4.11,4.88a13.1,13.1,0,0,0-1-1.11,5.69,5.69,0,0,1-2.17-4.26,5.62,5.62,0,0,1,4.25-5.41A5.6,5.6,0,0,1,16.15,37a5.33,5.33,0,0,1-1.31,6.57C14.43,44,14.07,44.38,13.69,44.78Zm-.56-.62-.18,0c0-.18,0-.36,0-.54.12-1.27-.46-1.88-1.72-1.87s-1.9.54-1.81,1.94a18.36,18.36,0,0,0,.64,3.6,1.42,1.42,0,0,0,1,.84,1.61,1.61,0,0,0,1.22-.78A24.07,24.07,0,0,0,13.13,44.16Zm.28-1.35c1.86-.92,2.41-2.57,1.93-4.69a4.65,4.65,0,0,0-4-3A4.53,4.53,0,0,0,7,38.39,3.68,3.68,0,0,0,8.8,42.62a9.33,9.33,0,0,0-.41-1.48,3.29,3.29,0,0,1,.89-4.28,3.06,3.06,0,0,1,3.92,0,3.28,3.28,0,0,1,.87,4.3C13.87,41.57,13.72,42,13.41,42.81Zm-2.2-5.41a1.8,1.8,0,0,0-1.78,1.85A1.76,1.76,0,0,0,11.31,41,1.56,1.56,0,0,0,13,39.22,1.66,1.66,0,0,0,11.21,37.4Z"/><path d="M35.66,29.27c3.23,0,6.47,0,9.71,0,1,0,1.33.32,1.32,1.33q-.06,9.86,0,19.7c0,1-.32,1.33-1.33,1.32q-9.84-.06-19.69,0c-1,0-1.33-.32-1.33-1.33q.06-9.84,0-19.69c0-1,.32-1.34,1.33-1.33C29,29.3,32.33,29.27,35.66,29.27Zm-.28,15.82c1.67-.12,3.26-.21,4.85-.33a1.47,1.47,0,0,0,1.5-1.48c.07-1.89.11-3.79.05-5.68A1.51,1.51,0,0,0,40.19,36C37,36,33.84,36,30.66,36a1.74,1.74,0,0,0-1.8,1.86c0,1.69,0,3.37,0,5.06a1.67,1.67,0,0,0,1.68,1.79Z"/><path d="M71.28,40.55c0,3.19,0,6.38,0,9.57,0,1-.22,1.47-1.36,1.46q-9.78-.07-19.55,0c-1.11,0-1.39-.39-1.39-1.43q.06-9.7,0-19.42c0-1.15.39-1.46,1.5-1.45,6.42,0,12.85,0,19.28,0,1.23,0,1.55.4,1.53,1.57C71.24,34.08,71.28,37.31,71.28,40.55Zm-5.87-6.38a10.29,10.29,0,0,1-.79,1.08c-2,2-4,4.07-6.09,6.08a2.77,2.77,0,0,1-1.13.72A1.56,1.56,0,0,1,56.15,42a1.3,1.3,0,0,1,0-1.23,17.32,17.32,0,0,1,1.92-2.44c1-1.06,2-2,3-3.07l-.17-.38c-1.85,0-3.7,0-5.54,0A2,2,0,0,0,53,37.14c-.07,1.77-.07,3.55,0,5.33a2.06,2.06,0,0,0,2.26,2.18,11.36,11.36,0,0,0,2.18,0,4.11,4.11,0,0,1,4.05,1.63,5.83,5.83,0,0,0,4.22,1.92c-.71-.75-1.33-1.29-1.82-1.93-.8-1.06-.61-1.47.74-1.59,1.11-.11,2-.63,1.94-1.71C66.46,40,67.42,37,65.41,34.17Z"/><path d="M46.55,11.18c0,3.19,0,6.38,0,9.56,0,1.06-.33,1.45-1.41,1.45q-9.63-.06-19.27,0c-1.09,0-1.42-.41-1.41-1.45q0-9.64,0-19.27c0-1,.33-1.38,1.34-1.38q9.71,0,19.41,0c1,0,1.35.4,1.34,1.38C46.52,4.71,46.55,7.94,46.55,11.18ZM28.06,15.66a4.19,4.19,0,0,0,3.25,1.84,8.8,8.8,0,0,0,10-6.14c.33-1,.3-2.2.88-3a2.52,2.52,0,0,0,.29-3.05,8,8,0,0,1-2.32-.21c-2.3-.92-4-.34-5.05,1.9-.19.41-.34.83-.52,1.27A8.77,8.77,0,0,1,30,6c-.61-.52-1.43-.81-1.4.34,0,1.83-.72,3.77.7,5.51A15.61,15.61,0,0,1,30.83,15Z"/><path d="M60.16,0c3.23,0,6.47,0,9.7,0,1,0,1.44.3,1.43,1.4q-.06,9.77,0,19.55c0,1-.34,1.34-1.34,1.33q-9.78-.09-19.55-.09c-.93,0-1.3-.31-1.3-1.26q0-9.85-.09-19.69C49,.26,49.4,0,50.31,0,53.59,0,56.88,0,60.16,0Zm7.28,11.11h0c0-1.05,0-2.09,0-3.14,0-2.59-1.4-4.14-4-4.26a69.88,69.88,0,0,0-7.09.08,3.56,3.56,0,0,0-3.71,3.75c-.12,2.45-.11,4.91,0,7.37a3.48,3.48,0,0,0,3.44,3.58A69.58,69.58,0,0,0,64,18.46a3.65,3.65,0,0,0,3.41-3.78C67.47,13.5,67.44,12.31,67.44,11.13Z"/><path d="M33.34,40.39,33.86,38c.68.29,1.39.54,2,.88,2.9,1.49,2.71,1.63,0,3-.66.35-1.37.59-2.06.88Z"/><path d="M54,11.05c0-1,0-2.09,0-3.14A2.71,2.71,0,0,1,56.64,5c2.27-.09,4.55-.1,6.82,0A2.5,2.5,0,0,1,66,7.36a45,45,0,0,1,.13,7.06c-.15,2-1.34,2.83-3.33,2.87-1.77,0-3.55,0-5.32,0C54.9,17.23,54,16.23,54,13.65v-2.6Zm6,3.88a3.72,3.72,0,0,0,3.85-3.76,3.69,3.69,0,0,0-3.92-3.81,3.6,3.6,0,0,0-3.69,3.75A3.61,3.61,0,0,0,60,14.93ZM65.21,7.1c-.55-.34-.87-.7-1.16-.67s-.69.49-.66.72a1,1,0,0,0,.73.71C64.39,7.88,64.69,7.48,65.21,7.1Z"/><path d="M60.05,13.64a2.58,2.58,0,0,1-2.47-2.42A2.58,2.58,0,0,1,60,8.62a2.65,2.65,0,0,1,2.49,2.43A2.59,2.59,0,0,1,60.05,13.64Z"/></g></g></svg>